<svg width="107" height="110" viewBox="0 0 107 110" fill="none" xmlns="http://www.w3.org/2000/svg">
<ellipse cx="53.1891" cy="54.8152" rx="53.1891" ry="54.8152" fill="#B1B4C5"/>
<ellipse cx="53.1891" cy="52.385" rx="53.1891" ry="52.385" fill="url(#paint0_linear)"/>
<ellipse cx="53.1891" cy="53.4651" rx="40.8321" ry="41.0439" fill="#E1E4ED"/>
<path d="M69.0538 42.8384C68.7529 42.7224 68.4396 42.672 68.1505 42.6924C67.7327 42.7217 67.3953 42.893 67.1954 43.1734C66.018 44.8386 65.0537 47.9835 64.2761 50.5104C63.9192 51.6789 63.4401 53.2427 63.0932 53.9849C62.7313 51.9056 63.14 44.2884 63.2986 41.355L63.3012 41.3076C63.4111 39.2696 63.4259 38.9122 63.4018 38.7553C63.2271 37.6373 62.7834 36.9035 62.0824 36.575C61.3737 36.2419 60.4533 36.3893 59.4619 36.9917C58.9648 37.2952 58.8273 38.3369 58.4006 43.0589L58.3991 43.0797C58.1641 45.6739 57.6234 51.6472 56.9579 52.6419C56.2071 51.2502 55.1741 43.3425 54.7282 39.9197C54.4162 37.5226 54.2345 36.1462 54.1124 35.7305C53.8552 34.8596 52.7694 34.1186 51.6943 34.0775C50.7995 34.0327 50.0653 34.4922 49.7149 35.2908C49.0593 36.0274 49.2909 38.47 50.0155 44.2554C50.3605 47.0088 51.0724 52.6962 50.6244 53.3342C49.731 53.2361 48.1972 49.6736 46.0652 42.7426C45.467 40.8015 45.2818 40.2177 45.0981 39.9621C44.736 39.072 43.5051 38.3854 42.4016 38.463C42.3073 38.4696 42.2157 38.482 42.1252 38.4994C41.5475 38.6152 40.2293 39.1521 40.5103 41.6296C41.2887 45.0644 42.1342 47.5864 42.9548 50.0341L42.9714 50.0831C43.4623 51.5492 43.9265 52.9346 44.3577 54.4719C45.3743 58.1018 44.979 60.3539 44.9742 60.3793C44.9404 60.6111 44.8695 60.7526 44.7629 60.8021C44.7245 60.8203 44.6753 60.8311 44.6199 60.835C44.2978 60.8577 43.8146 60.6423 43.5655 60.5019C42.9967 59.4043 40.1645 54.1727 37.5981 53.4472L37.5059 53.4197L37.4126 53.4284C36.4714 53.5182 35.7793 53.8774 35.3563 54.4959C34.686 55.474 34.9635 56.7198 35.0308 56.9696L35.0686 57.0591C35.0896 57.0968 37.1476 60.885 37.4662 62.6472C37.7408 64.158 39.1619 65.7955 40.3044 67.1111L40.3514 67.1646C40.7241 67.5951 41.0458 67.9671 41.2995 68.3115C44.6146 71.8026 49.8574 74.7392 49.9001 74.7628C50.5542 75.2502 50.918 75.7211 50.9564 76.1265C50.9807 76.3918 50.8442 76.5505 50.8395 76.5559L50.7253 76.6761L51.45 77.3873L65.2818 76.4061L65.8715 73.6778C67.695 65.9722 67.3143 59.4021 67.3083 59.3582C67.315 59.1165 67.8261 56.7788 68.2371 54.8901L68.2492 54.8421C69.0685 51.0795 70.0874 46.3977 70.2828 44.6171C70.3678 43.8557 69.8854 43.1563 69.0538 42.8384Z" fill="#8A90AC"/>
<defs>
<linearGradient id="paint0_linear" x1="0" y1="0" x2="0" y2="104.77" gradientUnits="userSpaceOnUse">
<stop stop-color="white" stop-opacity="0.0966455"/>
<stop offset="1" stop-color="white" stop-opacity="0.01"/>
</linearGradient>
</defs>
</svg>
