<svg width="110" height="112" viewBox="0 0 110 112" fill="none" xmlns="http://www.w3.org/2000/svg">
<ellipse cx="54.6862" cy="55.8152" rx="53.6862" ry="54.8152" fill="#B1B4C5"/>
<ellipse cx="54.6862" cy="53.385" rx="53.6862" ry="52.385" fill="url(#paint0_linear)"/>
<ellipse cx="54.6862" cy="54.4651" rx="41.2137" ry="41.0439" fill="#E1E4ED"/>
<path d="M70.6515 48.5704C70.1762 42.574 63.4436 43.1862 63.4436 43.1862C60.6018 38.1753 56.1625 41.8048 56.1625 41.8048C52.752 36.8938 48.4758 41.4446 48.4758 41.4446C41.1031 40.6493 41.3889 46.679 41.3889 46.679C41.2153 48.5958 42.4279 54.5259 42.4279 54.5259C41.3341 51.108 38.9617 53.9452 38.9617 53.9452C36.0451 58.4472 38.2406 60.9117 38.2406 60.9117C42.1871 65.5386 50.5977 71.0916 50.5977 71.0916C53.6431 72.8368 52.355 74.3929 52.355 74.3929L70.7753 71.3483L71.1988 67.854C73.9989 59.3824 70.6515 48.5704 70.6515 48.5704Z" fill="#8A90AC"/>
<defs>
<linearGradient id="paint0_linear" x1="1" y1="1" x2="1" y2="105.77" gradientUnits="userSpaceOnUse">
<stop stop-color="white" stop-opacity="0.0966455"/>
<stop offset="1" stop-color="white" stop-opacity="0.01"/>
</linearGradient>
</defs>
</svg>
