<svg width="110" height="110" viewBox="0 0 110 110" fill="none" xmlns="http://www.w3.org/2000/svg">
<ellipse cx="54.6862" cy="54.8152" rx="53.6862" ry="54.8152" fill="#B1B4C5"/>
<ellipse cx="54.6862" cy="52.385" rx="53.6862" ry="52.385" fill="url(#paint0_linear)"/>
<ellipse cx="54.6862" cy="53.4651" rx="41.2137" ry="41.0439" fill="#E1E4ED"/>
<path d="M43.9271 53.1138L48.379 46.8799C46.5285 46.5728 43.1306 46.5047 40.3472 49.2766C35.9597 53.646 34.1828 63.085 33.8124 65.3699L44.9633 76.4748C46.9706 76.3036 55.8583 75.1219 64.4222 66.5933C64.5131 66.4091 66.5991 64.874 64.8936 63.1755C64.0796 62.3648 62.732 62.3799 61.9003 63.2082C61.4769 63.6299 60.8183 63.6361 60.4037 63.2232C59.989 62.8102 59.9953 62.1544 60.4187 61.7327L63.4448 58.719C64.9827 57.1874 63.5331 54.6037 61.3868 55.2244L58.9092 57.3366C58.4568 57.7294 57.7843 57.6613 57.4124 57.2333C57.0282 56.7902 57.1103 56.1193 57.5476 55.7416C66.2018 48.1799 64.9385 49.0906 70.506 43.8934C72.5863 42.1685 69.9695 39.1175 67.9196 40.8644L54.4506 52.9265C54.0588 53.2589 53.4582 53.2652 53.0726 52.9114C52.6276 52.5287 52.6174 51.9773 52.9083 51.5417L62.3032 36.9964C63.6765 35.1443 60.9737 33.0873 59.5273 34.9544L45.6363 54.3022C45.3013 54.7844 44.6262 54.8951 44.1661 54.5578C43.7046 54.2493 43.5783 53.5796 43.9271 53.1138Z" fill="#8A90AC"/>
<defs>
<linearGradient id="paint0_linear" x1="1" y1="0" x2="1" y2="104.77" gradientUnits="userSpaceOnUse">
<stop stop-color="white" stop-opacity="0.0966455"/>
<stop offset="1" stop-color="white" stop-opacity="0.01"/>
</linearGradient>
</defs>
</svg>
